<?xml version="1.0" encoding="utf-8"?>
<svg width="1666px" height="94" viewBox="36 0 1764 109" xmlns="http://www.w3.org/2000/svg" xmlns:bx="https://boxy-svg.com">
  <title>\E.Ψ.Ǝ/</title>
  <defs>
    <style bx:fonts="Share Tech Mono" bx:pinned="true">@import url(https://fonts.googleapis.com/css2?family=Share+Tech+Mono%3Aital%2Cwght%400%2C400&amp;display=swap);</style>
  </defs>
  <text style="fill: rgb(51, 51, 51); font-family: &quot;Share Tech Mono&quot;; font-size: 55.8px; font-weight: 700; white-space: pre;" transform="matrix(1.036051, 0, 0, 1.249985, -5.208036, 12.951857)"><tspan x="37.859" y="53.799" style="font-size: 63.2008px;">E.Ψ.Ǝ </tspan><tspan style="font-size: 67.2008px; letter-spacing: 4.4px;">SECRETA SECRETORUM | terminal</tspan></text>
  <text style="white-space: pre; fill: rgb(51, 51, 51); font-family: Arial, sans-serif; font-size: 55.8px;" x="1275.236" y="71.732"> </text>
  <g transform="matrix(0.917549, 0, 0, 0.810564, 1527.750488, 8.514726)" style="fill: rgb(0, 0, 0);" bx:origin="0.487 0.469">
    <rect x="0" y="0" width="4" height="100"/>
    <rect x="6" y="0" width="2" height="100"/>
    <rect x="12" y="0" width="2" height="100"/>
    <rect x="22" y="0" width="2" height="100"/>
    <rect x="30" y="0" width="2" height="100"/>
    <rect x="38" y="0" width="4" height="100"/>
    <rect x="44" y="0" width="4" height="100"/>
    <rect x="50" y="0" width="6" height="100"/>
    <rect x="58" y="0" width="6" height="100"/>
    <rect x="66" y="0" width="2" height="100"/>
    <rect x="74" y="0" width="4" height="100"/>
    <rect x="80" y="0" width="6" height="100"/>
    <rect x="88" y="0" width="4" height="100"/>
    <rect x="94" y="0" width="6" height="100"/>
    <rect x="106" y="0" width="2" height="100"/>
    <rect x="110" y="0" width="2" height="100"/>
    <rect x="118" y="0" width="4" height="100"/>
    <rect x="124" y="0" width="2" height="100"/>
    <rect x="132" y="0" width="4" height="100"/>
    <rect x="142" y="0" width="2" height="100"/>
    <rect x="146" y="0" width="6" height="100"/>
    <rect x="154" y="0" width="4" height="100"/>
    <rect x="160" y="0" width="4" height="100"/>
    <rect x="168" y="0" width="4" height="100"/>
    <rect x="176" y="0" width="2" height="100"/>
    <rect x="180" y="0" width="4" height="100"/>
    <rect x="190" y="0" width="2" height="100"/>
    <rect x="198" y="0" width="2" height="100"/>
    <rect x="206" y="0" width="4" height="100"/>
    <rect x="212" y="0" width="2" height="100"/>
    <rect x="220" y="0" width="4" height="100"/>
    <rect x="230" y="0" width="2" height="100"/>
    <rect x="238" y="0" width="2" height="100"/>
    <rect x="242" y="0" width="4" height="100"/>
    <rect x="252" y="0" width="2" height="100"/>
    <rect x="260" y="0" width="2" height="100"/>
    <rect x="264" y="0" width="4" height="100"/>
    <rect x="274" y="0" width="6" height="100"/>
    <rect x="282" y="0" width="2" height="100"/>
    <rect x="286" y="0" width="4" height="100"/>
    <text style="font: 20px monospace" text-anchor="end" x="289" y="122">CULTER DEI</text>
  </g>
</svg>